/* XPM */
static char *tool_BIG_simple_32_png[] = {
/* columns rows colors chars-per-pixel */
"32 32 247 2 ",
"   c #0C0D0C",
".  c #0E0E0E",
"X  c gray6",
"o  c #101010",
"O  c #111111",
"+  c gray7",
"@  c #131313",
"#  c #141313",
"$  c gray8",
"%  c #151515",
"&  c #161515",
"*  c #151615",
"=  c #161615",
"-  c #161616",
";  c #171716",
":  c gray9",
">  c #181717",
",  c #181818",
"<  c #181918",
"1  c #191919",
"2  c #191A1A",
"3  c gray10",
"4  c #1B1B1B",
"5  c gray11",
"6  c #1D1D1D",
"7  c #1D1E1E",
"8  c #1E1E1E",
"9  c #202020",
"0  c #202121",
"q  c #212222",
"w  c #222222",
"e  c #232323",
"r  c gray14",
"t  c #252525",
"y  c #252625",
"u  c #252626",
"i  c gray15",
"p  c #262726",
"a  c #272727",
"s  c #272827",
"d  c #282827",
"f  c #282828",
"g  c #282928",
"h  c #292829",
"j  c gray16",
"k  c #29292A",
"l  c #2A2A2A",
"z  c gray17",
"x  c #2C2C2C",
"c  c #2D2D2D",
"v  c gray18",
"b  c #2F2F2F",
"n  c #2F3030",
"m  c #2F3132",
"M  c gray19",
"N  c #313131",
"B  c #313231",
"V  c #323232",
"C  c #363537",
"Z  c #383638",
"A  c #383739",
"S  c #383938",
"D  c #383839",
"F  c #3C3C3C",
"G  c #3E3F3D",
"H  c #3F3F3F",
"J  c #42413F",
"K  c #3F3F40",
"L  c gray25",
"P  c #404140",
"I  c #414140",
"U  c #414141",
"Y  c #424243",
"T  c #434343",
"R  c #444541",
"E  c #444344",
"W  c #444445",
"Q  c #464445",
"!  c #464645",
"~  c #484644",
"^  c #474847",
"/  c #4C4E4C",
"(  c #4E4E4E",
")  c #534F52",
"_  c #505050",
"`  c #515252",
"'  c gray32",
"]  c #565553",
"[  c gray34",
"{  c #565957",
"}  c #595856",
"|  c #565359",
" . c #585958",
".. c #595958",
"X. c #5B5B5A",
"o. c #585A5C",
"O. c #5B5D5C",
"+. c #5D5C5D",
"@. c #5F5E61",
"#. c #646361",
"$. c #616561",
"%. c #636464",
"&. c #666464",
"*. c #666665",
"=. c #676766",
"-. c #676667",
";. c #666767",
":. c #686366",
">. c #676861",
",. c #696A67",
"<. c #6C6967",
"1. c #646669",
"2. c #686768",
"3. c #696769",
"4. c #656869",
"5. c #676968",
"6. c #686869",
"7. c #696869",
"8. c #6B6969",
"9. c #696A69",
"0. c #696B6A",
"q. c #6A6B6A",
"w. c #6C6B6B",
"e. c #6C6C6A",
"r. c #6D6D6B",
"t. c #6D6B6C",
"y. c #6D6C6F",
"u. c #6D6F6F",
"i. c #6F6E6E",
"p. c #706E6E",
"a. c #716D70",
"s. c #707171",
"d. c #727272",
"f. c #757171",
"g. c #737472",
"h. c #727473",
"j. c #747473",
"k. c #727374",
"l. c #737275",
"z. c #727375",
"x. c #747274",
"c. c #757374",
"v. c #737574",
"b. c #737475",
"n. c #717476",
"m. c #747474",
"M. c #777475",
"N. c #747777",
"B. c #767676",
"V. c #777777",
"C. c #767873",
"Z. c #777976",
"A. c #797976",
"S. c #7A7976",
"D. c #757178",
"F. c #767778",
"G. c #77777A",
"H. c #797779",
"J. c #78767A",
"K. c #757878",
"L. c #797A79",
"P. c #787B79",
"I. c #7A7A78",
"U. c #797B7A",
"Y. c gray48",
"T. c #7B7A7A",
"R. c #7A7A7B",
"E. c #7A7B7B",
"W. c #7B7B7B",
"Q. c #7A7D79",
"!. c #7B7C7B",
"~. c #7B7D7B",
"^. c #7D7E7B",
"/. c #7A797D",
"(. c #7B797D",
"). c #7B7F7C",
"_. c #7B7D7F",
"`. c #7C7C7C",
"'. c #7C7D7C",
"]. c gray49",
"[. c #7D7E7D",
"{. c #7F7F7C",
"}. c #7D7D7E",
"|. c #7C7D7F",
" X c #7F7D7F",
".X c #7D7E7E",
"XX c #7D7F7E",
"oX c #7E7E7E",
"OX c #7F7E7E",
"+X c #7E7F7E",
"@X c #7E7F7F",
"#X c gray50",
"$X c #83807D",
"%X c #81817F",
"&X c #797C81",
"*X c #7E7D80",
"=X c #7E7E80",
"-X c #7F7F82",
";X c #807C80",
":X c #807F87",
">X c #847F86",
",X c #7F8182",
"<X c #808080",
"1X c #808180",
"2X c #808081",
"3X c #818081",
"4X c #818181",
"5X c #828181",
"6X c #818281",
"7X c #818282",
"8X c gray51",
"9X c #838383",
"0X c #848283",
"qX c #868283",
"wX c #838481",
"eX c #838783",
"rX c #848483",
"tX c #848583",
"yX c #858583",
"uX c #858683",
"iX c #868385",
"pX c #868386",
"aX c #848484",
"sX c #858584",
"dX c #848485",
"fX c gray52",
"gX c #868786",
"hX c #868687",
"jX c gray53",
"kX c #8A8785",
"lX c #878881",
"zX c #878883",
"xX c #878887",
"cX c #878987",
"vX c #838588",
"bX c #878B8A",
"nX c #888888",
"mX c #888988",
"MX c #888989",
"NX c #898989",
"BX c #898A88",
"VX c #898A89",
"CX c gray54",
"ZX c #8B8C8B",
"AX c gray56",
"SX c #8F9091",
"DX c None",
/* pixels */
"DXDX9X1X+X@XY.`.].[.+X].+X[.[.'.].!.].].oX+X+XoX+X#X@X#X<X9XDXDX",
"DXAXj + X $ % * + $ $ @ + - @ @ $ - $ % + + % $ $ % o O $ r 9XDX",
"#Xl + 1 $ - - - , - : - : : 1 $ : : - % - : % - - 1 : % , % L L.",
"#XO @ $ - : , $ % % - - : : % % @ % % 1 : $ % % : - , 3 1 % x aX",
"oX@ % $ $ @ $ , @ - $ : % $ % % % - : - : % - % + % : % : : x 8X",
"].o % $ $ % - % $ % , % % % $ @ % % - $ $ : % - % - : 1 , 1 M oX",
"#X- , : - - $ : k 8 $ : % - $ - $ - : % 8 z t 1 , - % % - , c ].",
"4X@ : : , % 2 } rXx., @ % $ $ % % $ : Z &XdXH.4 : : - $ 1 , M ].",
"#X+ % - % : U hXmXbXm.7 % - $ $ @ $ n zXkX.Xi $ - - % : + - v <X",
"#X% - : 1 % _ pXsXvXiXs.> $ $ % % 1 O.:XlXA % % 6 d % - - , v oX",
"<X@ , % - - 5 tX2XeXyXuX,.% $ $ , : 4.gX>X+.+ 0 r.G , % , : V ].",
"4XX , - : : , % J. X7X3X0X>., - , < j.$XwX5Xw.G.<XY $ : O , N oX",
"oXO - , : @ , - 1 6X].-X{.@Xo.; 4 ) *X,XOX|.;X%X=X- % - : $ N aX",
"4XO : + - 1 $ % - e qXU.(.}.^.9 q I._.T.).Z.D.ZXW : : - - - V 8X",
"8XX @ - $ $ - , : - 6 S.K./.R.Q. .M.~.N.V.m.q.j $ : @ : % : M <X",
"8XX - $ : 1 - O : : 3 e SXn.F.A.c.' f.XX4 3 1 4 , % % % % % M #X",
"8X@ - : - - : , % 1 1 1 . X.k.B.a.0.` $ 1 , % 1 % 1 % - - 1 v <X",
"9XX - $ - , 1 , $ - % : = D g.z.h.~ $ , : : $ - - $ % $ @ % v oX",
"#X@ , % 1 % % $ 1 1 % % ! i.-.8.v p./ @ : , 1 : % - : - % % v <X",
"4XX 3 1 - : % : - % @ P d.u.C.E : I v.^ : 1 % , $ - , : $ % c <X",
"fXX % - 4 % - , : % F y.t.3.T % 1 $ K *.H , : - $ , 3 1 , : b oX",
"<X. $ - 1 : $ $ @ Q 8.e.t.( : : % % : S <.| u , % 3 % : , : c #X",
"aXo % : , : , & R 9.6.1...@ $ % % - % - [ &.#.9 $ @ % $ - - b oX",
"<XX - 3 , : # m =.2.$.7.  : - @ $ % - $ 9 b.:.{ : , : , 1 - c <X",
"4X+ 3 - $ - $ ] F C l.- , 1 $ % % % $ % % t P.@.J % $ 1 @ $ V ].",
"4X@ % - , : : w ;.5.$ - - % @ % $ $ - % $ $ % %.B , , % 1 , v 9X",
"9XO - , % - 3 @ : : % - - - 1 % % $ - - % : : : 3 : % : 3 1 b 4X",
"8X. : , : , : 3 : 1 @ 1 - - @ % $ @ % 1 1 : : , : 1 : % $ - V <X",
"9Xo @ 1 4 : 1 1 $ : 4 $ : : - $ , - : : : : : % : : , : , $ M <X",
"DXj : , - : , - % $ , 1 % - - % @ : , , @ : : : - - : , : $ H E.",
"DX4XU j t t f j g f a y f s h f i f j f i f p a f j j t l L oXDX",
"DXDX`.VXCXnXNXmXnXNXMXBXnXfXjXgXjXxXnXcXjXVXjXNXjXaXmXMXmXW.DXDX"
};
