/* XPM */
static char * close_xpm[] = {
"16 16 27 1",
" 	c #666666",
".	c #757575",
"+	c #A4A4A4",
"@	c #C4C4C4",
"#	c #D5D5D5",
"$	c #D8D8D8",
"%	c #B4B4B4",
"&	c #D6D6D6",
"*	c #767676",
"=	c #C6C6C6",
"-	c #C7C7C7",
";	c #C3C3C3",
">	c #D2D2D2",
",	c #CDCDCD",
"'	c #C9C9C9",
")	c #C1C1C1",
"!	c #D3D3D3",
"~	c #CCCCCC",
"{	c #CACACA",
"]	c #777777",
"^	c #DFDFDF",
"/	c #DDDDDD",
"(	c #B1B1B1",
"_	c #A2A2A2",
":	c #D0D0D0",
"<	c #797979",
"[	c #BEBEBE",
"    .+@##@+.    ",
"   +$$$$$$$$+   ",
"  %&&&&&&&&&&%  ",
" +&&&&&&&&&&&&+ ",
"*&&& .=&&-. &&&*",
"+&&&. .==. .&&&+",
";&&&-. .. .@&&&;",
">####,.  .'####>",
">####=.  .=####>",
")!!!;. .. .;!!!)",
"+!!!. .~{. .!!!+",
"]!!! .~##~. !!!]",
" +>>^/!>>!/^>>+ ",
"  (>>>>>>>>>>(  ",
"   _::::::::_   ",
"    <_[,,[_<    "};
