/* XPM */
static char * over_xpm[] = {
"16 16 3 1",
" 	c #666666",
".	c #CCCCCC",
"+	c #8A8A8A",
"                ",
"                ",
"                ",
"   ..........   ",
"   ..........   ",
"   ++++++++++   ",
"                ",
"                ",
"                ",
"                ",
"                ",
"                ",
"                ",
"                ",
"                ",
"                "};
