/* XPM */
static char * up_xpm[] = {
"16 16 22 1",
" 	c None",
".	c #666666",
"+	c #969696",
"@	c #8A8A8A",
"#	c #D5D5D5",
"$	c #848484",
"%	c #D4D4D4",
"&	c #787878",
"*	c #D1D1D1",
"=	c #9E9E9E",
"-	c #9D9D9D",
";	c #717171",
">	c #CCCCCC",
",	c #AAAAAA",
"'	c #6A6A6A",
")	c #C6C6C6",
"!	c #B5B5B5",
"~	c #BDBDBD",
"{	c #BABABA",
"]	c #676767",
"^	c #BFBFBF",
"/	c #C1C1C1",
"................",
"................",
"................",
"................",
".......++.......",
"......@##@......",
".....$###%$.....",
"....&*#=-#*&....",
"...;>#,..,#>;...",
"..')#!....!#)'..",
"..~#{]....]{#^..",
"..#/........~#..",
"................",
"................",
"................",
"................"};
