/* XPM */
static char * stick_xpm[] = {
"16 16 36 1",
" 	c #666666",
".	c #656565",
"+	c #939393",
"@	c #B6B6B6",
"#	c #C4C4C4",
"$	c #B4B4B4",
"%	c #E2E2E2",
"&	c #B3B3B3",
"*	c #BEBEBE",
"=	c #999999",
"-	c #8B8B8B",
";	c #ABABAB",
">	c #ADADAD",
",	c #A2A2A2",
"'	c #D6D6D6",
")	c #B2B2B2",
"!	c #9F9F9F",
"~	c #BCBCBC",
"{	c #DFDFDF",
"]	c #A9A9A9",
"^	c #A8A8A8",
"/	c #D7D7D7",
"(	c #8E8E8E",
"_	c #C6C6C6",
":	c #848484",
"<	c #B0B0B0",
"[	c #868686",
"}	c #CBCBCB",
"|	c #A6A6A6",
"1	c #7D7D7D",
"2	c #C2C2C2",
"3	c #989898",
"4	c #D5D5D5",
"5	c #8C8C8C",
"6	c #CFCFCF",
"7	c #AAAAAA",
"   . +@##@+ .   ",
"    $%%%%%%$    ",
"   &%*=--=*%&   ",
"  +%*-    -*%+  ",
"  ;%> ,'', >%;  ",
"  )%! ~{{~ !%)  ",
"  ]%] ^//^ ]%]  ",
"  (%_:    :_%(  ",
"   <%*=--=*%<   ",
"   [}%%%%%%}[   ",
"    |%%%%%%|    ",
"    12%%%%21    ",
"     34%%43     ",
"      @{{@      ",
"      5665      ",
"       77       "};
