/* XPM */
static char * stick_0_xpm[] = {
"16 16 32 1",
" 	c None",
".	c #666666",
"+	c #656565",
"@	c #939393",
"#	c #B6B6B6",
"$	c #C4C4C4",
"%	c #B4B4B4",
"&	c #E2E2E2",
"*	c #B3B3B3",
"=	c #BEBEBE",
"-	c #999999",
";	c #8B8B8B",
">	c #ABABAB",
",	c #ADADAD",
"'	c #B2B2B2",
")	c #9F9F9F",
"!	c #A9A9A9",
"~	c #8E8E8E",
"{	c #C6C6C6",
"]	c #848484",
"^	c #B0B0B0",
"/	c #868686",
"(	c #CBCBCB",
"_	c #A6A6A6",
":	c #7D7D7D",
"<	c #C2C2C2",
"[	c #989898",
"}	c #D5D5D5",
"|	c #DFDFDF",
"1	c #8C8C8C",
"2	c #CFCFCF",
"3	c #AAAAAA",
"...+.@#$$#@.+...",
"....%&&&&&&%....",
"...*&=-;;-=&*...",
"..@&=;....;=&@..",
"..>&,......,&>..",
"..'&)......)&'..",
"..!&!......!&!..",
"..~&{]....]{&~..",
"...^&=-;;-=&^...",
".../(&&&&&&(/...",
"...._&&&&&&_....",
"....:<&&&&<:....",
".....[}&&}[.....",
"......#||#......",
"......1221......",
".......33......."};
