#define bullet_width 5
#define bullet_height 5
static unsigned char bullet_bits[] = {
   0x00, 0x09, 0x12, 0x09, 0x00 };
