#define close_width 8
#define close_height 8
static unsigned char close_bits[] = {
   0x80, 0x44, 0x28, 0x10, 0x28, 0x44, 0x82, 0x01 };
