#define iconify_width 8
#define iconify_height 8
static unsigned char iconify_bits[] = {
   0x00, 0x01, 0x01, 0x82, 0x42, 0x24, 0x14, 0x08 };
