#define max_width 8
#define max_height 8
static unsigned char max_bits[] = {
   0x10, 0x28, 0x24, 0x42, 0x41, 0x80, 0x80, 0x00 };
